<svg width="16" height="16" viewBox="0 0 16 16" fill="none" xmlns="http://www.w3.org/2000/svg">
<path d="M5.87842 10.1207L10.1211 5.87805" stroke="#ECF8FF" stroke-width="1.5" stroke-linecap="round" stroke-linejoin="round"/>
<path d="M9.06011 11.1818L7.29234 12.9496C6.7297 13.5121 5.96669 13.828 5.17113 13.8279C4.37557 13.8279 3.61261 13.5118 3.05007 12.9493C2.48752 12.3867 2.17145 11.6237 2.17139 10.8282C2.17132 10.0326 2.48725 9.26962 3.0497 8.70697L4.81747 6.93921" stroke="#ECF8FF" stroke-width="1.5" stroke-linecap="round" stroke-linejoin="round"/>
<path d="M11.1816 9.06023L12.9494 7.29247C13.5118 6.72982 13.8278 5.96681 13.8277 5.17125C13.8276 4.37569 13.5116 3.61273 12.949 3.05019C12.3865 2.48764 11.6235 2.17158 10.8279 2.17151C10.0324 2.17144 9.26937 2.48738 8.70673 3.04983L6.93896 4.81759" stroke="#ECF8FF" stroke-width="1.5" stroke-linecap="round" stroke-linejoin="round"/>
</svg>
